<?xml version="1.0" encoding="iso-8859-1"?>
<!-- Generator: Adobe Illustrator 19.0.0, SVG Export Plug-In . SVG Version: 6.00 Build 0)  -->
<svg version="1.1" id="Layer_1" xmlns="http://www.w3.org/2000/svg" xmlns:xlink="http://www.w3.org/1999/xlink" x="0px" y="0px"
	 viewBox="0 0 512 512" style="enable-background:new 0 0 512 512;" xml:space="preserve">
<path style="fill:#FFA800;" d="M194.783,368.849c-7.404,0-14.559-4-18.25-11.006L62.493,141.442
	c-5.307-10.069-1.446-22.535,8.624-27.842c10.069-5.308,22.535-1.445,27.842,8.624l114.041,216.402
	c5.307,10.069,1.446,22.535-8.624,27.842C201.31,368.083,198.022,368.849,194.783,368.849z"/>
<polygon style="fill:#6D6E71;" points="241.482,204.526 331.134,204.526 331.134,354.418 212.628,354.418 "/>
<path style="fill:#FFCD02;" d="M358.269,296.024h-27.136v58.394h85.53l0,0C416.664,322.168,390.519,296.024,358.269,296.024z"/>
<g>
	<circle style="fill:#ECF0F1;" cx="370.809" cy="369.871" r="30.915"/>
	<circle style="fill:#ECF0F1;" cx="231.952" cy="343.511" r="57.274"/>
</g>
<path style="fill:#FFCD02;" d="M48.389,324.62h11.722l49.806,76.17H48.389c-21.033,0-38.085-17.051-38.085-38.085l0,0
	C10.305,341.671,27.356,324.62,48.389,324.62z"/>
<path style="fill:#FFA800;" d="M471.064,343.511h11.99l18.641,57.277h-30.63c-15.817,0-28.639-12.822-28.639-28.639l0,0
	C442.426,356.334,455.247,343.511,471.064,343.511z"/>
<g>
	<path style="fill:#231F20;" d="M231.95,333.208c-5.682,0-10.305,4.623-10.305,10.305c0,5.682,4.623,10.305,10.305,10.305
		c5.682,0,10.305-4.623,10.305-10.305C242.254,337.83,237.632,333.208,231.95,333.208z"/>
	<path style="fill:#231F20;" d="M511.494,397.6l-18.641-57.278c-1.381-4.244-5.337-7.115-9.799-7.115h-11.989
		c-15.409,0-28.755,8.996-35.065,22.011l-9.278-6.386c-2.128-26.287-19.103-48.431-42.519-58.014v-20.825l6.291-10.625
		c2.899-4.897,1.28-11.218-3.617-14.117c-4.897-2.902-11.217-1.282-14.118,3.617l-7.729,13.053c-0.941,1.589-1.438,3.403-1.438,5.25
		v18.775c-1.759-0.136-3.53-0.227-5.324-0.227h-16.831v-81.194c0-5.69-4.613-10.305-10.305-10.305H241.48
		c-4.94,0-9.186,3.506-10.119,8.356l-14.448,75.059c-7.202,1.644-13.975,4.424-20.103,8.169l-88.736-168.384
		c-3.85-7.305-10.314-12.674-18.201-15.118c-7.888-2.442-16.256-1.668-23.56,2.182c-7.305,3.849-12.674,10.314-15.117,18.201
		c-2.443,7.888-1.668,16.255,2.182,23.56l10.973,20.821L5.642,340.061C2.047,346.822,0,354.527,0,362.704
		c0,26.683,21.707,48.391,48.389,48.391h61.528c3.784,0,7.264-2.074,9.064-5.402c1.8-3.327,1.631-7.375-0.439-10.542l-44.051-67.368
		L62.4,236.943l15.187-44.753l89.235,169.331c7.904,28.548,34.098,49.575,65.127,49.575c29.856,0,55.236-19.469,64.154-46.372
		h33.818c-0.212,1.69-0.334,3.407-0.334,5.152c0,22.728,18.491,41.219,41.219,41.219c22.728,0,41.219-18.491,41.219-41.219
		c0-1.746-0.122-3.462-0.334-5.152h1.767l19.084,13.136c2.77,18.777,18.988,33.236,38.522,33.236h30.63c3.3,0,6.399-1.58,8.339-4.25
		C511.972,404.175,512.515,400.738,511.494,397.6z M48.389,390.485c-15.317,0-27.78-12.463-27.78-27.781
		c0-15.317,12.463-27.78,27.78-27.78h6.148l0.142,0.218l0.369,2.772c0.536,4.026,3.333,7.189,6.938,8.403l28.88,44.168H48.389z
		 M51.908,314.315h-3.518c-4.444,0-8.746,0.614-12.837,1.742l11.914-35.108L51.908,314.315z M358.269,306.328
		c22.98,0,42.248,16.204,46.978,37.785h-2.298c-7.561-9.414-19.157-15.457-32.143-15.457c-11.487,0-21.886,4.728-29.369,12.334
		v-34.661L358.269,306.328L358.269,306.328z M70.882,128.784c0.815-2.63,2.604-4.785,5.041-6.069
		c1.502-0.792,3.139-1.193,4.79-1.193c1.024,0,2.055,0.155,3.062,0.467c2.629,0.814,4.785,2.604,6.067,5.04l90.888,172.467
		c-5.264,6.117-9.466,13.173-12.285,20.893L71.609,136.638C70.325,134.203,70.068,131.414,70.882,128.784z M231.949,390.485
		c-25.901,0-46.973-21.072-46.973-46.974c0-25.901,21.071-46.973,46.973-46.973s46.973,21.071,46.973,46.973
		C278.921,369.413,257.85,390.485,231.949,390.485z M286.307,303.409V245.53c0-5.69-4.613-10.305-10.305-10.305
		s-10.305,4.615-10.305,10.305v39.467c-8.241-4.771-17.571-7.855-27.524-8.769l11.819-61.397h70.836v81.194v48.09h-21.311
		c0.002-0.201,0.015-0.4,0.015-0.602C299.532,328.508,294.611,314.635,286.307,303.409z M370.806,390.485
		c-11.364,0-20.61-9.246-20.61-20.61s9.246-20.61,20.61-20.61s20.61,9.246,20.61,20.61S382.17,390.485,370.806,390.485z
		 M471.064,390.485c-10.11,0-18.334-8.224-18.334-18.334s8.224-18.334,18.334-18.334h4.506l11.934,36.669L471.064,390.485
		L471.064,390.485z"/>
</g>
<g>
</g>
<g>
</g>
<g>
</g>
<g>
</g>
<g>
</g>
<g>
</g>
<g>
</g>
<g>
</g>
<g>
</g>
<g>
</g>
<g>
</g>
<g>
</g>
<g>
</g>
<g>
</g>
<g>
</g>
</svg>
